Coordinates
version=1
nRows=23
nColumns=38
inDegrees=no

Units are S.I. units (second, meters, Newtons, ...)
If the header above contains a line with 'inDegrees', this indicates whether rotational values are in degrees (yes) or radians (no).

endheader
time	pelvis_tilt	pelvis_list	pelvis_rotation	pelvis_tx	pelvis_ty	pelvis_tz	hip_flexion_r	hip_adduction_r	hip_rotation_r	knee_angle_r	ankle_angle_r	subtalar_angle_r	mtp_angle_r	hip_flexion_l	hip_adduction_l	hip_rotation_l	knee_angle_l	ankle_angle_l	subtalar_angle_l	mtp_angle_l	lumbar_extension	lumbar_bending	lumbar_rotation	arm_flex_r	arm_add_r	arm_rot_r	elbow_flex_r	pro_sup_r	wrist_flex_r	wrist_dev_r	arm_flex_l	arm_add_l	arm_rot_l	elbow_flex_l	pro_sup_l	wrist_flex_l	wrist_dev_l
1.49	2.99448	1.33221	-1.37613	0.598578	0.921763	0.953475	-0.371333	0.0679614	-0.228665	0.158039	-0.261121	0	0	0.200713	-0.258824	-0.482826	0.886478	-0.284944	0	0	-0.30611	0.0472857	-0.094728	-0.176744	-0.229596	-0.137277	0.720015	0.408071	0	0	-0.214324	-0.262892	0.0386674	0.798268	1.4828	0	0
1.5	2.99842	1.33345	-1.38015	0.597828	0.930864	0.952184	-0.38112	0.0660797	-0.231213	0.159919	-0.253354	0	0	0.202779	-0.248444	-0.498185	0.822659	-0.295513	0	0	-0.30692	0.045677	-0.0934259	-0.175459	-0.22857	-0.141481	0.721874	0.410327	0	0	-0.215481	-0.262658	0.0382771	0.789668	1.4732	0	0
1.51	2.99776	1.3369	-1.37861	0.59694	0.940008	0.950597	-0.388102	0.0650147	-0.232745	0.161344	-0.247179	0	0	0.206673	-0.236896	-0.508752	0.757282	-0.302533	0	0	-0.305209	0.044967	-0.0928211	-0.174598	-0.227703	-0.145736	0.723734	0.413535	0	0	-0.216187	-0.261751	0.0368658	0.779293	1.46517	0	0
1.52	2.99496	1.34208	-1.37364	0.595904	0.949163	0.948812	-0.392778	0.0644693	-0.23539	0.164024	-0.239121	0	0	0.211446	-0.222439	-0.510745	0.688145	-0.308591	0	0	-0.301214	0.0447421	-0.0926969	-0.174069	-0.225545	-0.15383	0.724755	0.418509	0	0	-0.215376	-0.260816	0.0366763	0.766113	1.45632	0	0
1.53	2.98856	1.34783	-1.36393	0.594724	0.958349	0.946876	-0.398082	0.0655758	-0.237119	0.163657	-0.236044	0	0	0.215506	-0.206364	-0.504597	0.615486	-0.31076	0	0	-0.297731	0.0445781	-0.100619	-0.167278	-0.233207	-0.129343	0.722242	0.396071	0	0	-0.221795	-0.255153	0.0155811	0.757777	1.46341	0	0
1.54	2.97858	1.35673	-1.3491	0.593368	0.96762	0.944647	-0.397913	0.0667029	-0.243687	0.169595	-0.222812	0	0	0.220263	-0.185943	-0.482329	0.534605	-0.31395	0	0	-0.287469	0.0466766	-0.093177	-0.176047	-0.218125	-0.180814	0.727457	0.435695	0	0	-0.209994	-0.259586	0.0415652	0.734343	1.43672	0	0
1.55	2.96322	1.3657	-1.32809	0.591857	0.976932	0.942306	-0.398405	0.0692421	-0.247598	0.172216	-0.216116	0	0	0.221173	-0.163737	-0.446548	0.446624	-0.314211	0	0	-0.279377	0.0480833	-0.100976	-0.171891	-0.223991	-0.16344	0.725044	0.41815	0	0	-0.21379	-0.254459	0.0239853	0.722241	1.44614	0	0
1.56	2.94503	1.37489	-1.30409	0.590228	0.986291	0.939926	-0.39774	0.0717059	-0.251421	0.176354	-0.208498	0	0	0.216566	-0.139541	-0.396396	0.350515	-0.313479	0	0	-0.270429	0.049896	-0.107465	-0.169084	-0.228678	-0.150891	0.72337	0.403077	0	0	-0.215859	-0.249844	0.00931795	0.708716	1.45635	0	0
1.57	2.92776	1.38313	-1.28165	0.588534	0.995755	0.937649	-0.397335	0.0733211	-0.255838	0.182152	-0.200833	0	0	0.204321	-0.115443	-0.337416	0.248433	-0.315063	0	0	-0.262562	0.0514056	-0.112733	-0.167634	-0.23342	-0.140091	0.723514	0.389297	0	0	-0.217503	-0.24515	-0.00591983	0.695518	1.4691	0	0
1.58	2.91412	1.38954	-1.26436	0.586848	1.00543	0.935532	-0.396238	0.0727709	-0.264278	0.195442	-0.191651	0	0	0.186448	-0.0950825	-0.282655	0.149926	-0.32082	0	0	-0.256616	0.0521999	-0.116249	-0.16758	-0.237377	-0.132722	0.725356	0.37732	0	0	-0.219549	-0.240965	-0.0205497	0.6838	1.48127	0	0
1.59	2.90229	1.39467	-1.25085	0.585255	1.01528	0.933542	-0.39451	0.070445	-0.274667	0.213951	-0.182361	0	0	0.168253	-0.0803599	-0.240022	0.0647797	-0.329498	0	0	-0.251814	0.0524292	-0.117555	-0.168081	-0.240469	-0.128414	0.727327	0.367443	0	0	-0.22191	-0.237488	-0.033615	0.673273	1.49072	0	0
1.6	2.89208	1.39819	-1.24015	0.583812	1.02534	0.931773	-0.393915	0.067593	-0.282991	0.233923	-0.174227	0	0	0.15177	-0.0707285	-0.209503	0	-0.340788	0	0	-0.248488	0.052272	-0.11745	-0.169152	-0.243216	-0.124678	0.729111	0.360149	0	0	-0.224607	-0.234934	-0.0454146	0.663978	1.49601	0	0
1.61	2.88385	1.40252	-1.23247	0.582501	1.03557	0.930095	-0.388988	0.0620446	-0.294368	0.263873	-0.157896	0	0	0.151027	-0.0668554	-0.211637	0	-0.3391	0	0	-0.243764	0.0515726	-0.111305	-0.175967	-0.234895	-0.154474	0.733413	0.385503	0	0	-0.222439	-0.235187	-0.0448874	0.650761	1.49283	0	0
1.62	2.88177	1.40228	-1.2321	0.581392	1.04583	0.929043	-0.395793	0.0597813	-0.289107	0.272669	-0.167722	0	0	0.145541	-0.0646966	-0.212498	0	-0.338404	0	0	-0.245542	0.0493837	-0.112926	-0.173005	-0.246206	-0.121838	0.731489	0.354933	0	0	-0.229635	-0.233512	-0.0615168	0.647871	1.49553	0	0
1.63	2.88617	1.40324	-1.23914	0.580235	1.05623	0.928074	-0.39681	0.0529082	-0.290797	0.295686	-0.164736	0	0	0.142076	-0.0613444	-0.211395	0	-0.339784	0	0	-0.245677	0.0461707	-0.109252	-0.175158	-0.247299	-0.121029	0.731761	0.352403	0	0	-0.232309	-0.23352	-0.0686958	0.640755	1.49531	0	0
1.64	2.90193	1.40678	-1.25903	0.579016	1.06681	0.92707	-0.387777	0.0388964	-0.302167	0.342306	-0.140304	0	0	0.140807	-0.0550215	-0.208738	0	-0.337782	0	0	-0.240448	0.0414537	-0.0934872	-0.187707	-0.222712	-0.197233	0.735113	0.425557	0	0	-0.224275	-0.242645	-0.0330759	0.62451	1.45213	0	0
1.65	2.92288	1.40521	-1.28405	0.577671	1.07761	0.926711	-0.391128	0.0292759	-0.299544	0.366032	-0.151509	0	0	0.135715	-0.0501202	-0.214436	0.0118946	-0.351416	0	0	-0.246544	0.0347844	-0.101137	-0.179432	-0.253582	-0.108479	0.730723	0.335755	0	0	-0.239294	-0.230161	-0.0947146	0.627884	1.50799	0	0
1.66	2.94663	1.40475	-1.31088	0.576203	1.08879	0.926436	-0.392777	0.0188287	-0.297105	0.392153	-0.156285	0	0	0.135034	-0.0452229	-0.2292	0.0444884	-0.348843	0	0	-0.247266	0.028799	-0.0970838	-0.183477	-0.253408	-0.112035	0.729449	0.337999	0	0	-0.242799	-0.230698	-0.100106	0.621908	1.50588	0	0
1.67	2.97257	1.40515	-1.33901	0.574565	1.10025	0.926311	-0.39399	0.0084058	-0.292226	0.417022	-0.164219	0	0	0.132258	-0.0381587	-0.23795	0.0650001	-0.357453	0	0	-0.246114	0.0222365	-0.093639	-0.188132	-0.25266	-0.116437	0.726394	0.34134	0	0	-0.246287	-0.231264	-0.105003	0.6152	1.50415	0	0
1.68	2.99915	1.40582	-1.36678	0.572776	1.11186	0.926399	-0.395019	-0.00119281	-0.282486	0.440285	-0.173848	0	0	0.128081	-0.0299568	-0.241975	0.0766802	-0.374346	0	0	-0.24387	0.0156573	-0.0909585	-0.192504	-0.251572	-0.121429	0.721356	0.344286	0	0	-0.249593	-0.23194	-0.109212	0.608024	1.50312	0	0
1.69	3.02461	1.40537	-1.39244	0.570893	1.12356	0.926759	-0.396163	-0.00983656	-0.26798	0.464691	-0.183078	0	0	0.121718	-0.0222212	-0.244963	0.085548	-0.381205	0	0	-0.242108	0.0102225	-0.0859692	-0.20036	-0.24611	-0.141159	0.71844	0.359207	0	0	-0.250392	-0.235742	-0.100574	0.600141	1.4901	0	0
1.7	3.04724	1.40812	-1.4154	0.568897	1.13536	0.927051	-0.390192	-0.0199176	-0.250965	0.497082	-0.195026	0	0	0.11844	-0.0150906	-0.251013	0.0942418	-0.402363	0	0	-0.236737	0.00415636	-0.0855537	-0.203341	-0.248719	-0.134573	0.710353	0.352435	0	0	-0.254814	-0.235381	-0.108091	0.593498	1.49297	0	0
1.71	3.06291	1.41303	-1.43056	0.566746	1.14723	0.927288	-0.380544	-0.0290162	-0.226915	0.53145	-0.207524	0	0	0.119127	-0.0104233	-0.259581	0.108039	-0.418233	0	0	-0.228351	-0.000503628	-0.0856425	-0.207088	-0.25094	-0.12888	0.702106	0.347383	0	0	-0.258634	-0.234581	-0.115294	0.585924	1.49591	0	0
